<?xml version="1.0" standalone="no"?>
<!DOCTYPE svg PUBLIC "-//W3C//DTD SVG 20010904//EN"
 "http://www.w3.org/TR/2001/REC-SVG-20010904/DTD/svg10.dtd">
<svg version="1.0" xmlns="http://www.w3.org/2000/svg"
 width="2400.000000pt" height="2400.000000pt" viewBox="0 0 2400.000000 2400.000000"
 preserveAspectRatio="xMidYMid meet">

<g transform="translate(0.000000,2400.000000) scale(0.100000,-0.100000)"
fill="#000000" stroke="none">
<path d="M16610 23095 c0 -305 1 -555 3 -555 1 -1 103 -5 227 -10 252 -10 372
-22 540 -51 615 -106 877 -363 781 -764 -32 -133 -86 -248 -199 -425 -55 -85
-460 -1036 -4140 -9727 -499 -1179 -909 -2143 -912 -2143 -3 0 -314 680 -692
1510 l-687 1509 1284 3497 c707 1923 1299 3522 1315 3553 157 293 481 487 987
590 208 43 526 73 882 84 l74 2 199 520 c109 286 198 521 198 522 0 2 -1336 3
-2969 3 l-2968 0 -190 -522 -190 -523 131 -7 c573 -29 858 -164 932 -443 17
-63 17 -202 1 -282 -13 -62 -1268 -3573 -1277 -3573 -3 0 -564 1205 -1248
2678 -946 2037 -1254 2691 -1288 2737 -75 98 -133 205 -161 293 -85 272 83
430 515 487 62 8 139 15 170 15 31 0 87 3 125 7 l67 6 0 618 0 619 -2875 0
-2875 0 0 -620 c0 -584 1 -620 18 -620 105 -1 453 -23 547 -35 565 -69 950
-228 1226 -504 65 -64 129 -141 164 -194 40 -62 693 -1441 2172 -4585 1163
-2473 2114 -4506 2114 -4517 0 -11 -442 -1201 -984 -2645 -684 -1825 -986
-2643 -990 -2683 -44 -373 -452 -657 -1172 -816 -468 -103 -952 -151 -1727
-171 -210 -6 -385 -14 -389 -18 -7 -6 -399 -1028 -399 -1038 0 -2 3689 -4
8198 -4 l8198 0 18 38 c122 252 2256 4796 2256 4803 0 6 -229 8 -591 7 l-591
-3 -69 -155 c-110 -245 -314 -655 -448 -900 -842 -1539 -1746 -2418 -2741
-2664 -310 -77 75 -70 -4239 -73 -3118 -3 -3862 -1 -3859 9 63 177 1104 2948
1108 2948 3 0 219 -428 480 -950 l475 -950 1075 0 1075 0 3020 7102 c1661
3905 3038 7149 3061 7207 175 457 472 785 898 991 293 142 676 232 1041 246
83 2 169 7 193 10 l42 5 0 555 0 554 -2470 0 -2470 0 0 -555z"/>
<path d="M19610 1552 l0 -1082 130 0 130 0 2 767 3 767 735 -770 c405 -423
752 -787 773 -809 l37 -40 -3 1075 -2 1075 -125 0 -125 0 -3 -762 -2 -763
-761 798 c-419 438 -768 804 -775 812 -12 12 -14 -154 -14 -1068z"/>
<path d="M4398 2565 c-232 -38 -429 -145 -605 -328 -220 -229 -313 -473 -300
-787 7 -164 31 -269 91 -396 55 -115 110 -197 193 -285 154 -163 321 -262 533
-315 61 -15 112 -19 270 -19 181 0 202 2 292 27 117 33 203 71 297 132 85 55
215 177 282 265 65 85 143 245 169 345 46 179 46 402 0 581 -90 351 -417 667
-785 760 -127 33 -311 41 -437 20z m422 -265 c131 -38 224 -94 326 -195 106
-106 163 -196 206 -327 28 -83 32 -110 36 -243 3 -128 1 -163 -17 -238 -28
-116 -74 -214 -148 -312 -158 -209 -379 -317 -647 -316 -329 0 -592 163 -740
458 -97 194 -112 444 -41 654 94 275 339 489 616 538 93 17 323 6 409 -19z"/>
<path d="M8875 2574 c-11 -2 -45 -9 -75 -15 -131 -25 -291 -132 -359 -237 -55
-86 -74 -155 -74 -272 -1 -125 18 -185 90 -280 86 -115 232 -212 438 -290 148
-57 233 -106 306 -181 78 -79 102 -144 97 -259 -7 -139 -63 -241 -171 -311
-73 -48 -118 -60 -209 -60 -94 0 -164 22 -235 74 -89 66 -153 185 -153 284 0
18 -3 33 -7 33 -5 0 -63 -12 -130 -26 -143 -31 -138 -24 -98 -151 60 -191 198
-342 380 -415 78 -32 83 -33 235 -33 137 0 163 3 220 24 186 66 347 228 403
406 30 96 32 301 3 389 -37 113 -134 233 -250 310 -63 42 -137 80 -286 146
-269 120 -310 146 -357 227 -30 52 -35 130 -13 198 18 55 100 138 163 166 44
20 69 23 162 24 105 0 114 -2 177 -33 46 -22 83 -51 118 -90 50 -56 50 -56 78
-41 15 9 60 35 100 58 l72 42 -39 57 c-21 32 -67 84 -101 115 -104 97 -204
135 -365 142 -55 2 -109 2 -120 -1z"/>
<path d="M18200 2574 c-14 -2 -56 -9 -95 -15 -244 -39 -502 -201 -672 -421
-237 -309 -280 -758 -104 -1113 129 -260 353 -457 620 -544 130 -42 224 -54
401 -48 182 6 280 26 415 87 218 98 425 307 530 532 73 160 107 372 86 557
-28 266 -123 458 -320 651 -163 159 -330 252 -533 296 -71 15 -278 27 -328 18z
m287 -260 c157 -32 278 -98 388 -210 148 -150 223 -307 246 -515 27 -251 -50
-480 -226 -667 -183 -194 -402 -276 -675 -251 -338 31 -633 283 -721 614 -16
61 -21 111 -21 210 -2 265 69 434 258 614 77 74 112 99 187 135 85 42 169 69
242 79 77 11 251 6 322 -9z"/>
<path d="M2587 2534 c-4 -4 -7 -470 -7 -1036 l0 -1028 445 0 445 0 0 115 0
115 -315 0 -315 0 -2 918 -3 917 -121 3 c-66 1 -123 -1 -127 -4z"/>
<path d="M5870 1828 c0 -745 2 -789 45 -911 36 -105 81 -173 185 -278 79 -80
109 -103 180 -138 120 -58 211 -74 385 -69 119 4 152 9 220 32 137 47 232 115
326 233 65 82 107 163 140 273 23 75 23 77 27 823 l3 747 -125 0 -125 0 -4
-697 c-3 -617 -6 -707 -21 -773 -38 -164 -122 -289 -234 -347 -78 -41 -140
-55 -252 -54 -246 1 -391 114 -463 363 -20 70 -21 99 -26 788 l-6 715 -127 3
-128 3 0 -713z"/>
<path d="M7730 1505 l0 -1035 130 0 130 0 0 1035 0 1035 -130 0 -130 0 0
-1035z"/>
<path d="M10422 2531 c32 -95 895 -2168 900 -2163 9 10 888 2147 888 2160 0 9
-39 12 -135 12 -118 0 -135 -2 -144 -17 -7 -14 -559 -1380 -603 -1493 -8 -22
-50 77 -318 740 l-308 765 -142 3 c-90 2 -141 -1 -138 -7z"/>
<path d="M12362 1788 c4 -849 -1 -794 84 -967 39 -78 61 -108 138 -185 105
-105 187 -153 325 -187 73 -18 105 -21 235 -17 173 6 262 28 375 95 144 86
272 263 323 448 22 79 23 92 26 823 l3 742 -126 0 -125 0 0 -632 c0 -351 -5
-675 -10 -728 -25 -233 -106 -384 -248 -457 -79 -42 -140 -54 -257 -54 -245 0
-381 105 -457 352 -22 73 -22 84 -28 794 l-5 720 -128 3 -128 3 3 -753z"/>
<path d="M14220 1505 l0 -1035 130 0 130 0 0 1035 0 1035 -130 0 -130 0 0
-1035z"/>
<path d="M14670 2420 l0 -120 250 0 250 0 0 -915 0 -915 120 0 120 0 2 913 3
912 248 3 248 2 -3 118 -3 117 -617 3 -618 2 0 -120z"/>
<path d="M15927 2533 c-4 -3 -7 -57 -7 -119 l0 -114 248 -2 247 -3 3 -912 2
-913 130 0 130 0 0 915 0 915 240 0 240 0 0 120 0 120 -613 0 c-338 0 -617 -3
-620 -7z"/>
</g>
</svg>
