<?xml version="1.0" standalone="no"?>
<!DOCTYPE svg PUBLIC "-//W3C//DTD SVG 20010904//EN"
 "http://www.w3.org/TR/2001/REC-SVG-20010904/DTD/svg10.dtd">
<svg version="1.0" xmlns="http://www.w3.org/2000/svg"
 width="2000.000000pt" height="2000.000000pt" viewBox="0 0 2000.000000 2000.000000"
 preserveAspectRatio="xMidYMid meet">

<g transform="translate(0.000000,2000.000000) scale(0.100000,-0.100000)"
fill="#000000" stroke="none">
<path d="M11660 16896 c0 -3 29 -79 64 -169 158 -401 219 -629 218 -822 0
-196 -44 -307 -172 -435 -156 -157 -348 -276 -675 -420 -77 -34 -158 -70 -180
-80 -22 -10 -50 -21 -62 -24 -13 -4 -23 -12 -23 -17 0 -12 40 -2 100 24 25 10
108 41 185 67 77 27 185 65 241 84 116 41 202 62 329 82 185 28 330 11 472
-58 86 -41 206 -158 286 -279 63 -96 202 -375 297 -599 34 -80 66 -149 71
-154 20 -21 19 5 -2 51 -41 89 -140 346 -169 437 -112 351 -131 566 -65 742
31 83 62 131 129 203 152 161 436 325 891 514 57 24 83 47 52 47 -8 0 -79 -26
-158 -59 -247 -100 -398 -147 -614 -192 -449 -94 -673 18 -919 458 -60 108
-156 312 -226 480 -23 56 -48 108 -56 114 -8 6 -14 9 -14 5z"/>
<path d="M14695 15480 c-44 -5 -156 -13 -250 -19 -93 -6 -197 -16 -230 -21
-33 -5 -148 -21 -255 -35 -208 -27 -468 -67 -590 -91 -211 -40 -483 -99 -469
-102 8 -1 117 9 242 23 426 47 1075 56 1467 20 217 -20 616 -89 780 -135 354
-98 591 -201 818 -353 95 -63 261 -206 335 -288 139 -152 270 -395 314 -579
86 -364 44 -729 -131 -1155 -45 -109 -181 -371 -249 -480 -178 -285 -493 -675
-741 -918 -158 -155 -398 -381 -486 -459 -109 -95 -394 -322 -470 -373 -85
-58 -180 -126 -273 -197 -41 -31 -92 -67 -113 -80 -22 -12 -64 -41 -94 -63
-91 -68 -529 -341 -690 -430 -58 -32 -121 -68 -140 -79 -19 -11 -58 -32 -87
-48 l-52 -29 6 -63 c7 -81 -9 -150 -52 -215 -36 -54 -33 -61 15 -36 15 8 63
24 107 36 43 12 83 24 88 28 6 4 26 14 45 21 136 52 754 356 925 455 50 28
119 67 155 85 66 34 93 50 305 182 402 251 550 350 861 578 398 292 604 468
1003 855 296 287 606 671 794 984 251 416 377 761 409 1121 16 181 -6 410 -48
505 -7 17 -25 62 -40 100 -51 138 -143 313 -203 387 -131 163 -335 336 -530
448 -243 140 -603 264 -945 325 -472 85 -602 97 -1086 100 -201 2 -401 -1
-445 -5z"/>
<path d="M9335 11620 c-60 -16 -159 -43 -220 -59 -60 -17 -137 -37 -170 -46
-286 -77 -1375 -484 -1466 -549 -14 -9 29 -11 199 -9 l217 3 170 85 c200 99
323 156 500 235 127 56 435 180 447 180 3 0 41 16 83 36 42 20 89 40 103 44
15 5 59 20 97 35 39 14 82 30 96 35 38 12 86 39 69 39 -8 0 -64 -13 -125 -29z"/>
<path d="M12685 11469 c-55 -16 -131 -38 -170 -49 -265 -73 -937 -270 -967
-283 -30 -13 -38 -22 -38 -41 0 -31 -3 -32 -47 -5 -41 26 -99 24 -323 -11 -74
-12 -166 -26 -205 -32 -79 -12 -118 -43 -128 -100 -5 -33 -2 -337 8 -770 3
-126 2 -228 -3 -228 -4 0 -45 64 -91 143 -173 295 -163 286 -330 262 -216 -32
-217 -32 -241 -72 -11 -19 -36 -101 -55 -182 -49 -206 -67 -271 -75 -271 -3 0
-14 35 -24 78 -10 42 -27 109 -37 147 -11 39 -57 219 -104 400 -48 185 -93
341 -104 355 -32 45 -72 50 -206 30 -301 -46 -393 -60 -398 -60 -4 0 -23 -14
-42 -32 -36 -31 -37 -31 -65 -15 -24 15 -64 17 -308 17 -168 0 -291 -4 -308
-10 -16 -6 -38 -23 -49 -38 -19 -26 -20 -40 -17 -362 2 -184 -1 -348 -6 -365
l-8 -30 -19 50 c-24 66 -251 587 -281 647 -13 25 -36 56 -51 68 -27 21 -33 21
-325 18 l-298 -3 -32 -33 -33 -32 0 -128 c0 -274 16 -1477 21 -1650 l6 -183
33 -35 32 -34 264 0 c149 0 280 5 301 10 25 7 43 22 57 44 20 32 21 48 22 357
0 178 4 332 7 342 5 12 59 -85 187 -340 131 -259 188 -363 208 -378 27 -19 40
-20 295 -16 191 2 276 7 299 16 65 27 63 5 62 732 0 362 -4 762 -8 888 -4 127
-6 234 -3 239 9 16 19 -25 153 -599 11 -44 28 -118 39 -165 11 -47 28 -121 39
-165 10 -44 32 -138 49 -210 17 -71 56 -237 86 -368 31 -131 63 -251 73 -267
33 -56 53 -57 292 -21 280 43 351 58 375 79 23 21 63 106 187 399 57 135 99
223 108 223 7 0 23 -12 34 -27 76 -98 373 -446 399 -468 39 -33 45 -33 363 15
255 38 275 43 300 78 24 33 25 92 1 517 -64 1163 -72 1345 -60 1332 3 -3 25
-82 49 -176 45 -180 65 -227 107 -251 27 -15 55 -9 315 58 7 2 17 -7 22 -20 6
-13 78 -279 161 -593 82 -313 158 -587 167 -608 21 -49 47 -67 97 -67 40 0
550 141 596 165 47 24 65 54 64 104 -1 26 -72 291 -168 627 -91 319 -166 587
-166 595 0 11 30 24 103 44 56 15 114 34 129 41 38 20 68 62 68 98 0 29 -80
374 -115 493 -8 28 -27 65 -41 82 -23 28 -32 31 -77 30 -29 0 -97 -14 -152
-30z"/>
<path d="M6995 10730 c-210 -108 -360 -187 -405 -212 -25 -14 -85 -47 -135
-73 -49 -27 -119 -65 -155 -85 -36 -20 -108 -60 -160 -87 -136 -73 -505 -294
-650 -390 -41 -27 -102 -67 -135 -88 -118 -75 -687 -499 -904 -673 -434 -348
-990 -895 -1312 -1292 -194 -238 -438 -589 -544 -780 -302 -544 -441 -1020
-422 -1435 10 -215 42 -338 134 -520 99 -195 107 -209 155 -280 42 -64 186
-216 248 -263 169 -130 493 -299 660 -346 230 -65 324 -88 455 -111 525 -93
1213 -77 1972 45 264 43 802 162 1058 234 259 74 500 150 514 162 15 14 -19
10 -114 -11 -252 -54 -594 -106 -960 -146 -246 -26 -773 -32 -1035 -11 -424
34 -825 135 -1110 279 -362 185 -557 361 -734 666 -68 117 -99 193 -132 327
-83 338 -41 741 122 1170 90 236 246 542 382 750 320 486 598 819 1042 1248
329 317 565 527 760 677 413 317 419 322 643 483 190 135 582 389 751 486 51
28 86 55 87 65 8 172 12 196 47 264 7 13 -11 5 -123 -53z"/>
<path d="M13086 9035 c-154 -58 -287 -112 -298 -121 -29 -27 -22 -68 48 -264
36 -102 102 -286 146 -410 44 -124 85 -242 92 -262 16 -52 25 -58 87 -65 47
-4 70 1 179 42 69 26 186 68 260 95 203 72 200 69 200 147 0 43 -135 442 -158
465 -8 8 -317 -95 -338 -113 -11 -9 -11 -16 0 -38 7 -14 21 -51 31 -81 24 -75
35 -85 75 -71 18 6 36 9 40 6 4 -3 15 -28 25 -57 16 -48 16 -53 0 -64 -25 -18
-155 -48 -165 -38 -5 5 -24 54 -44 109 -19 55 -64 181 -100 280 -36 99 -66
183 -66 188 0 4 12 12 28 17 35 13 70 28 106 46 36 18 47 10 75 -56 12 -27 25
-51 30 -54 4 -3 53 10 107 28 146 50 137 44 130 80 -9 49 -62 242 -71 256 -11
18 -70 40 -107 39 -18 0 -159 -47 -312 -104z"/>
<path d="M12195 9037 c-30 -21 -225 -109 -355 -162 -115 -46 -164 -75 -127
-75 10 0 34 7 54 15 19 8 46 15 59 15 13 0 74 14 136 31 164 46 228 60 237 54
5 -2 60 12 122 32 l113 36 -55 14 c-30 8 -72 23 -95 33 -48 24 -63 25 -89 7z"/>
<path d="M12481 8836 c-69 -23 -126 -47 -128 -53 -3 -8 78 -317 102 -390 12
-35 -26 2 -164 161 -83 96 -155 178 -161 181 -5 3 -70 -11 -145 -31 -116 -32
-135 -40 -135 -57 0 -11 23 -106 51 -211 148 -555 221 -822 227 -828 7 -7 229
76 246 92 5 5 -1 48 -13 102 -52 219 -82 344 -87 361 -3 9 -1 17 3 17 7 0 250
-276 358 -407 l20 -24 115 37 c63 20 117 38 119 40 3 3 -35 170 -89 394 -27
111 -65 266 -105 435 -53 224 -54 225 -73 224 -9 -1 -73 -20 -141 -43z"/>
<path d="M11595 8610 c-55 -15 -112 -30 -127 -34 -35 -8 -35 -12 2 -178 54
-247 119 -542 155 -713 20 -93 40 -174 44 -178 11 -12 251 73 251 88 0 14 -48
278 -80 440 -24 123 -84 435 -102 530 -9 48 -18 70 -28 71 -8 1 -60 -10 -115
-26z"/>
<path d="M11110 8473 c-58 -7 -208 -26 -335 -41 l-230 -28 2 -25 c3 -26 183
-1037 188 -1055 3 -12 251 49 268 65 4 4 1 53 -8 109 -19 127 -19 129 3 141 9
5 98 26 197 46 99 20 188 41 197 46 9 5 25 25 33 44 19 38 21 21 -49 405 -20
107 -38 208 -41 225 -3 16 -17 42 -32 57 -30 32 -36 32 -193 11z m-12 -391
c13 -79 22 -145 20 -148 -10 -10 -162 -45 -174 -40 -8 3 -14 18 -14 33 0 15
-9 82 -20 148 -11 66 -20 125 -20 132 0 15 37 21 120 19 l64 -1 24 -143z"/>
<path d="M10100 8329 c-320 -19 -421 -27 -425 -31 -5 -4 13 -175 50 -473 23
-188 53 -454 60 -525 10 -97 12 -103 43 -95 15 4 74 17 132 29 l105 21 -3 127
-4 126 54 11 c29 5 121 20 203 32 83 12 160 28 171 36 43 28 48 61 30 205 -65
524 -63 511 -86 530 -25 20 -88 21 -330 7z m104 -375 c9 -81 14 -150 9 -154
-13 -12 -167 -40 -174 -32 -8 8 -38 314 -32 325 2 4 44 7 92 7 l87 0 18 -146z"/>
<path d="M9400 8284 c-29 -4 -512 -34 -545 -34 -16 0 -30 -11 -45 -35 -22 -35
-22 -39 -11 -203 6 -92 21 -309 32 -482 11 -173 22 -320 24 -327 2 -7 23 -22
47 -34 47 -24 17 -24 447 2 229 14 231 15 252 91 11 43 8 168 -21 768 l-10
195 -35 33 c-35 32 -56 36 -135 26z m-116 -262 c7 -13 38 -602 32 -618 -4 -10
-27 -14 -83 -14 -43 0 -83 4 -89 8 -6 4 -14 45 -18 92 -5 65 -36 525 -36 538
0 6 190 1 194 -6z"/>
<path d="M7022 8240 c-21 -27 -25 -52 -44 -259 l-20 -230 22 -30 c12 -17 29
-35 38 -40 9 -5 94 -23 187 -40 94 -17 184 -35 200 -39 l30 -8 -3 -69 c-5
-112 1 -106 -110 -99 -53 4 -101 11 -107 16 -5 4 -12 32 -15 61 l-5 52 -110
11 c-60 6 -114 8 -118 4 -4 -4 -18 -64 -29 -134 -19 -110 -19 -131 -8 -167 26
-76 10 -72 307 -91 383 -24 360 -25 409 20 l40 37 19 200 18 201 -22 66 c-12
37 -28 71 -35 78 -13 10 -46 16 -291 55 -60 10 -114 21 -118 25 -10 9 11 130
25 148 13 15 141 17 167 2 12 -6 21 -26 25 -55 9 -55 19 -59 140 -54 118 5
118 5 120 170 l1 132 -80 30 -80 30 -265 4 -265 4 -23 -31z"/>
<path d="M7877 8243 c-4 -3 -8 -124 -8 -267 -1 -144 -4 -384 -8 -535 -3 -150
-3 -278 0 -283 8 -12 269 -2 281 10 4 4 10 94 14 200 4 108 11 195 17 199 13
8 170 4 179 -5 4 -4 4 -95 -1 -202 -4 -107 -5 -198 -2 -202 3 -3 69 -9 147
-13 l141 -7 7 203 c4 112 13 355 20 539 7 184 11 337 9 340 -5 5 -206 28 -259
29 l-31 1 -8 -210 -7 -210 -83 0 c-56 0 -88 4 -97 13 -10 10 -12 38 -7 118 4
57 7 146 8 197 l1 92 -153 0 c-85 0 -157 -3 -160 -7z"/>
<path d="M7370 5661 c0 -5 46 -104 103 -218 93 -189 179 -389 220 -514 44
-133 51 -174 51 -314 0 -130 -2 -145 -27 -204 -70 -167 -197 -301 -452 -478
-132 -92 -242 -158 -405 -241 -120 -62 -163 -92 -131 -92 6 0 107 48 224 106
211 106 296 141 518 215 287 95 525 69 704 -76 140 -113 289 -317 458 -625
109 -199 137 -244 143 -237 3 3 -35 85 -85 183 -178 356 -258 573 -282 768
-15 125 -2 210 51 321 50 105 125 193 262 311 122 104 239 180 508 329 96 53
181 103 189 111 21 19 5 30 -16 12 -58 -50 -478 -237 -682 -304 -212 -69 -393
-81 -533 -33 -31 10 -62 19 -68 19 -18 0 -121 69 -182 122 -90 77 -259 312
-370 513 -30 55 -84 153 -119 218 -57 105 -79 135 -79 108z"/>
<path d="M7400 4550 c-13 -8 -12 -10 3 -10 9 0 17 5 17 10 0 12 -1 12 -20 0z"/>
</g>
</svg>
